<svg xmlns="http://www.w3.org/2000/svg" width="1336" height="1648">
  <path fill="n one" fill-opacity="0" stroke="#FFF" stroke-width=".3" d="M0 1648h1336V0H0v1648M690 20c26.24 2.54 58.43 3.94 84.07 7.93 25.64 3.98 51.51 10.25 74.94 18.06 23.43 7.81 44.45 15.8 65.69 26.32 21.23 10.51 41.53 20 61.05 31.94 19.51 11.95 36.63 23.84 54.5 37.5 17.86 13.67 32.63 28.55 49.5 43.5 16.87 14.95 30.74 29.88 44.5 47.5 13.77 17.61 27.38 34.31 39.52 53.48 12.15 19.17 24.32 36.25 34.54 57.47 10.21 21.21 19.53 42.63 27.01 65.98s15.14 46.14 20.61 71.39c5.46 25.26 8.43 55.79 10.07 82.93 1.64 27.14-.24 60.29-2.98 87.02-2.73 26.74-9.17 54.29-13.01 79.99-3.85 25.7-13.13 48.84-20.33 72.67-7.21 23.83-14.94 45.64-23.99 68.01-9.04 22.37-17.33 44.51-27.01 65.99-9.68 21.47-19.3 41.48-29.98 62.01-10.69 20.54-21.13 40.98-31.95 61.06-10.83 20.07-20.88 39.91-33 59-12.13 19.09-25.16 37.56-35.52 57.48-10.36 19.92-24.03 37.34-35.53 56.47-11.51 19.12-25.63 36.71-37.62 55.38-11.99 18.67-24.11 37.04-37 55s-26.18 36.66-37.85 55.15c-11.67 18.49-27.19 34.51-39.98 52.02-12.8 17.51-27.96 34.88-41.55 51.45-13.6 16.57-29.76 32.81-43.45 48.55-13.69 15.73-28.29 36.17-43.5 49.5-15.21 13.34-32.98 41.91-53.77 35.27-20.8-6.64-31.85-29.99-48.73-43.27-16.88-13.27-28.67-33.53-44-49-15.34-15.46-27.03-33.9-42.17-49.83-15.13-15.93-28.77-33.54-42.33-50.67-13.57-17.12-26.89-34.36-40-52-13.1-17.64-26.72-35.45-39.5-53.5-12.79-18.04-24.36-36.66-37.02-54.98-12.66-18.32-25.08-37.05-37-56-11.92-18.94-23.47-37.56-35.15-56.85-11.69-19.28-23.38-38.7-34.38-58.62-11.01-19.91-20.22-40.37-31.62-60.38-11.4-20.01-21.1-40.86-31-62-9.91-21.13-19.06-41.35-29.06-62.94-9.99-21.6-18.56-43.14-27-66-8.44-22.87-16.55-45.64-23-70-6.44-24.37-15.13-46.85-18.95-73.05-3.82-26.2-7.8-57.08-8.07-84.93-.27-27.85-.26-62.99 2-90 2.26-27.01 7.87-54.84 12.99-80.01 5.13-25.16 12.07-48.4 20.94-71.06 8.86-22.67 17.75-43.45 28.99-64.01 11.23-20.56 21.49-38.95 34.38-57.62 12.9-18.67 27.18-34.01 42-51 14.83-16.98 28.87-31.45 45.95-46.05 17.07-14.61 33.81-27.48 51.83-41.17 18.02-13.68 36.13-24.68 56.62-35.39 20.48-10.7 40.63-21.56 62.99-30 22.37-8.43 43.89-18.08 68.33-23.67 24.45-5.59 50.01-15.3 76.65-16.35 26.64-1.05 59.68-8.35 87.33-5.67Z"/>
  <path fill="none" fill-opacity="0" stroke="#122428" stroke-width=".3" d="M690 20c-27.65-2.68-60.69 4.62-87.33 5.67-26.64 1.05-52.2 10.76-76.65 16.35-24.44 5.59-45.96 15.24-68.33 23.67-22.36 8.44-42.51 19.3-62.99 30-20.49 10.71-38.6 21.71-56.62 35.39-18.02 13.69-34.76 26.56-51.83 41.17-17.08 14.6-31.12 29.07-45.95 46.05-14.82 16.99-29.1 32.33-42 51-12.89 18.67-23.15 37.06-34.38 57.62-11.24 20.56-20.13 41.34-28.99 64.01-8.87 22.66-15.81 45.9-20.94 71.06-5.12 25.17-10.73 53-12.99 80.01-2.26 27.01-2.27 62.15-2 90s4.25 58.73 8.07 84.93c3.82 26.2 12.51 48.68 18.95 73.05 6.45 24.36 14.56 47.13 23 70 8.44 22.86 17.01 44.4 27 66 10 21.59 19.15 41.81 29.06 62.94 9.9 21.14 19.6 41.99 31 62 11.4 20.01 20.61 40.47 31.62 60.38 11 19.92 22.69 39.34 34.38 58.62 11.68 19.29 23.23 37.91 35.15 56.85 11.92 18.95 24.34 37.68 37 56s24.23 36.94 37.02 54.98c12.78 18.05 26.4 35.86 39.5 53.5 13.11 17.64 26.43 34.88 40 52 13.56 17.13 27.2 34.74 42.33 50.67 15.14 15.93 26.83 34.37 42.17 49.83 15.33 15.47 27.12 35.73 44 49 16.88 13.28 27.93 36.63 48.73 43.27 20.79 6.64 38.56-21.93 53.77-35.27 15.21-13.33 29.81-33.77 43.5-49.5 13.69-15.74 29.85-31.98 43.45-48.55 13.59-16.57 28.75-33.94 41.55-51.45 12.79-17.51 28.31-33.53 39.98-52.02 11.67-18.49 24.96-37.19 37.85-55.15s25.01-36.33 37-55c11.99-18.67 26.11-36.26 37.62-55.38 11.5-19.13 25.17-36.55 35.53-56.47s23.39-38.39 35.52-57.48c12.12-19.09 22.17-38.93 33-59 10.82-20.08 21.26-40.52 31.95-61.06 10.68-20.53 20.3-40.54 29.98-62.01 9.68-21.48 17.97-43.62 27.01-65.99 9.05-22.37 16.78-44.18 23.99-68.01 7.2-23.83 16.48-46.97 20.33-72.67 3.84-25.7 10.28-53.25 13.01-79.99 2.74-26.73 4.62-59.88 2.98-87.02-1.64-27.14-4.61-57.67-10.07-82.93-5.47-25.25-13.13-48.04-20.61-71.39-7.48-23.35-16.8-44.77-27.01-65.98-10.22-21.22-22.39-38.3-34.54-57.47-12.14-19.17-25.75-35.87-39.52-53.48-13.76-17.62-27.63-32.55-44.5-47.5-16.87-14.95-31.64-29.83-49.5-43.5-17.87-13.66-34.99-25.55-54.5-37.5-19.52-11.94-39.82-21.43-61.05-31.94-21.24-10.52-42.26-18.51-65.69-26.32-23.43-7.81-49.3-14.08-74.94-18.06-25.64-3.99-57.83-5.39-84.07-7.93m-12 123c23.77 3.4 40.89 24.17 62.25 34.75 21.35 10.59 40.25 24.69 61.98 36.02 21.73 11.33 43.69 20.4 66.84 30.16 23.16 9.76 50.79 15.98 75.6 22.4 24.82 6.42 54.58 11.68 79.35 17.65 24.77 5.96 45.06 15.71 57.73 40.27 12.68 24.56 6 60.47 7.25 89.75s-.69 66.52 0 96c.69 29.48-2.47 62.75-6.98 90.02-4.5 27.28-11.78 53.64-19.35 78.65-7.56 25.02-16.66 47.11-27.44 69.56-10.78 22.44-21.55 43.36-34 64-12.45 20.63-27 36.96-40.98 56.02-13.99 19.05-29.15 35.08-45.5 52.5-16.34 17.42-32.41 31.72-50.83 46.17-18.42 14.45-38.16 27.68-58.62 39.38-20.45 11.71-40.9 25.39-63.53 33.47-22.63 8.08-48.95 25.21-73.84 22.3-24.9-2.9-49.13-15.65-71.16-25.84-22.03-10.19-43.27-21.94-63.47-34.53-20.2-12.6-38.96-24.69-57.05-39.95-18.09-15.26-35.03-29.35-51.17-46.83-16.13-17.48-29.93-33.66-44.83-52.17-14.9-18.5-28.6-36.23-41-57-12.41-20.76-23.38-40.09-34.02-62.98-10.64-22.89-19.59-45.55-27.01-70.99-7.42-25.45-14.07-51.61-17.21-79.79-3.14-28.18-5.48-62.07-6.01-91.99-.53-29.92.65-67.14 0-97s-2.24-60.93 12.77-85.23c15.01-24.3 35.48-30.61 61.25-35.75 25.78-5.13 55.73-11.4 81.05-16.95 25.33-5.54 49.67-14.94 73-24 23.34-9.06 44.97-20.42 66.63-31.37 21.65-10.96 38.78-27.22 60.53-36.47S652.48 139.35 678 143Z"/>
  <path fill="none" fill-opacity="0" stroke="#FFF" stroke-width=".3" d="M678 143c-25.52-3.65-46.02 20.98-67.77 30.23-21.75 9.25-38.88 25.51-60.53 36.47-21.66 10.95-43.29 22.31-66.63 31.37-23.33 9.06-47.67 18.46-73 24-25.32 5.55-55.27 11.82-81.05 16.95-25.77 5.14-46.24 11.45-61.25 35.75-15.01 24.3-13.42 55.37-12.77 85.23.65 29.86-.53 67.08 0 97s2.87 63.81 6.01 91.99c3.14 28.18 9.79 54.34 17.21 79.79 7.42 25.44 16.37 48.1 27.01 70.99 10.64 22.89 21.61 42.22 34.02 62.98 12.4 20.77 26.1 38.5 41 57 14.9 18.51 28.7 34.69 44.83 52.17 16.14 17.48 33.08 31.57 51.17 46.83 18.09 15.26 36.85 27.35 57.05 39.95 20.2 12.59 41.44 24.34 63.47 34.53 22.03 10.19 46.26 22.94 71.16 25.84 24.89 2.91 51.21-14.22 73.84-22.3 22.63-8.08 43.08-21.76 63.53-33.47 20.46-11.7 40.2-24.93 58.62-39.38 18.42-14.45 34.49-28.75 50.83-46.17 16.35-17.42 31.51-33.45 45.5-52.5 13.98-19.06 28.53-35.39 40.98-56.02 12.45-20.64 23.22-41.56 34-64 10.78-22.45 19.88-44.54 27.44-69.56 7.57-25.01 14.85-51.37 19.35-78.65 4.51-27.27 7.67-60.54 6.98-90.02-.69-29.48 1.25-66.72 0-96s5.43-65.19-7.25-89.75c-12.67-24.56-32.96-34.31-57.73-40.27-24.77-5.97-54.53-11.23-79.35-17.65-24.81-6.42-52.44-12.64-75.6-22.4-23.15-9.76-45.11-18.83-66.84-30.16-21.73-11.33-40.63-25.43-61.98-36.02C718.89 167.17 701.77 146.4 678 143m337 213c1.47 13.7 1.2 27.88 1 42-.2 14.12 1.09 27.9 1 42-.09 14.1.1 29 0 43s.17 29.31 0 43c-.17 13.69-1.86 27.02-2.98 40.02-1.11 13-3.78 24.68-6 37-2.22 12.33-3.13 26.28-6.02 37.98-2.89 11.71-6.31 22.16-9.93 33.07-3.61 10.91-7.16 21.39-11.39 31.61-4.24 10.22-8.6 19.87-13.6 29.4-5.01 9.52-10.6 17.85-16.38 26.62-5.79 8.77-11.3 17.16-17.47 25.53-6.17 8.37-12.94 16.7-19 25-6.06 8.3-12.33 16.26-19 24-6.67 7.74-13.1 15.38-20.48 22.52-7.38 7.15-13.86 14.64-21.5 21.5-7.64 6.86-15.6 13.06-24 19-8.39 5.95-16.75 11.72-25.33 17.67-8.59 5.95-17.04 12.46-26.15 17.85-9.11 5.39-18.21 10.29-28 15-9.79 4.71-19.57 8.82-29.84 13.16-10.28 4.33-21.33 7.99-32.6 10.4-11.28 2.4-26.01.53-37-2.66-10.99-3.18-22.09-6.29-32.35-10.64-10.27-4.36-20.99-8.47-30.67-13.33-9.69-4.87-18.18-10.27-27.01-16-8.83-5.74-16.51-12.09-25.05-17.95-8.53-5.87-16.29-12.27-24.5-18.5-8.2-6.23-15.71-12.66-23.5-19.5-7.8-6.84-14.52-13.76-22.5-20.5-7.97-6.74-13.94-15.46-21.05-22.95-7.12-7.49-12.74-15.8-19-24-6.26-8.19-11.82-16.71-17.62-25.38-5.8-8.68-10.82-17.55-16.38-26.61-5.57-9.07-10.24-18.45-14.63-28.38-4.38-9.94-9.76-18.67-13.99-29.01-4.24-10.33-8.59-20.94-12.01-31.99-3.41-11.06-6.46-22.24-9.06-33.94-2.6-11.69-6.15-22.67-7.94-35.06-1.78-12.4-3.4-25.52-4.4-38.6-1-13.08-2.48-26.62-2.67-40.33-.19-13.71.27-29.07 0-43s.24-29.47 1-43c.76-13.53-.76-30.09 0-43s-2.8-31.11 10.67-32.33c13.47-1.22 24.85-3.64 37.4-5.6 12.56-1.96 24.17-4.16 35.95-7.05 11.79-2.88 22.82-5.55 34.05-8.95 11.24-3.39 22.12-7.45 32.95-11.05 10.84-3.59 21.24-7.52 31.66-11.34 10.42-3.82 19.68-8.92 29.55-13.45 9.87-4.53 19.12-9.4 28.52-14.48 9.39-5.09 18.06-10.67 27.48-15.52 9.42-4.85 17.95-10.56 27.02-15.98 9.06-5.43 17.87-11.73 26.98-17.02 9.11-5.29 16.2-13.86 26.84-16.16 10.64-2.29 19.24 10.16 27.68 15.18 8.43 5.03 16.97 12.14 25.95 17.05 8.97 4.91 18.19 10.63 27.38 15.62 9.18 5 17.51 11.17 27 16 9.49 4.83 18.93 10.53 28.62 15.38 9.69 4.86 19.78 8.67 29.99 13.01 10.22 4.33 21.24 7.3 31.99 11.01 10.74 3.72 21.87 6.57 33 10 11.12 3.43 22.28 6.54 33.99 9.01 11.71 2.46 23.46 5.4 35.55 7.45 12.09 2.04 25.55 4.28 37.78 6.22Z"/>
  <path fill="none" fill-opacity="0" stroke="#122428" stroke-width=".3" d="M1015 356c-12.23-1.94-25.69-4.18-37.78-6.22-12.09-2.05-23.84-4.99-35.55-7.45-11.71-2.47-22.87-5.58-33.99-9.01-11.13-3.43-22.26-6.28-33-10-10.75-3.71-21.77-6.68-31.99-11.01-10.21-4.34-20.3-8.15-29.99-13.01-9.69-4.85-19.13-10.55-28.62-15.38-9.49-4.83-17.82-11-27-16-9.19-4.99-18.41-10.71-27.38-15.62-8.98-4.91-17.52-12.02-25.95-17.05-8.44-5.02-17.04-17.47-27.68-15.18-10.64 2.3-17.73 10.87-26.84 16.16-9.11 5.29-17.92 11.59-26.98 17.02-9.07 5.42-17.6 11.13-27.02 15.98-9.42 4.85-18.09 10.43-27.48 15.52-9.4 5.08-18.65 9.95-28.52 14.48-9.87 4.53-19.13 9.63-29.55 13.45-10.42 3.82-20.82 7.75-31.66 11.34-10.83 3.6-21.71 7.66-32.95 11.05-11.23 3.4-22.26 6.07-34.05 8.95-11.78 2.89-23.39 5.09-35.95 7.05-12.55 1.96-23.93 4.38-37.4 5.6-13.47 1.22-9.91 19.42-10.67 32.33-.76 12.91.76 29.47 0 43-.76 13.53-1.27 29.07-1 43s-.19 29.29 0 43 1.67 27.25 2.67 40.33c1 13.08 2.62 26.2 4.4 38.6 1.79 12.39 5.34 23.37 7.94 35.06 2.6 11.7 5.65 22.88 9.06 33.94 3.42 11.05 7.77 21.66 12.01 31.99 4.23 10.34 9.61 19.07 13.99 29.01 4.39 9.93 9.06 19.31 14.63 28.38 5.56 9.06 10.58 17.93 16.38 26.61 5.8 8.67 11.36 17.19 17.62 25.38 6.26 8.2 11.88 16.51 19 24 7.11 7.49 13.08 16.21 21.05 22.95 7.98 6.74 14.7 13.66 22.5 20.5 7.79 6.84 15.3 13.27 23.5 19.5 8.21 6.23 15.97 12.63 24.5 18.5 8.54 5.86 16.22 12.21 25.05 17.95 8.83 5.73 17.32 11.13 27.01 16 9.68 4.86 20.4 8.97 30.67 13.33 10.26 4.35 21.36 7.46 32.35 10.64 10.99 3.19 25.72 5.06 37 2.66 11.27-2.41 22.32-6.07 32.6-10.4 10.27-4.34 20.05-8.45 29.84-13.16 9.79-4.71 18.89-9.61 28-15 9.11-5.39 17.56-11.9 26.15-17.85 8.58-5.95 16.94-11.72 25.33-17.67 8.4-5.94 16.36-12.14 24-19 7.64-6.86 14.12-14.35 21.5-21.5 7.38-7.14 13.81-14.78 20.48-22.52s12.94-15.7 19-24c6.06-8.3 12.83-16.63 19-25 6.17-8.37 11.68-16.76 17.47-25.53 5.78-8.77 11.37-17.1 16.38-26.62 5-9.53 9.36-19.18 13.6-29.4 4.23-10.22 7.78-20.7 11.39-31.61 3.62-10.91 7.04-21.36 9.93-33.07 2.89-11.7 3.8-25.65 6.02-37.98 2.22-12.32 4.89-24 6-37 1.12-13 2.81-26.33 2.98-40.02.17-13.69-.1-29 0-43s-.09-28.9 0-43c.09-14.1-1.2-27.88-1-42 .2-14.12.47-28.3-1-42m-49 44c1.82 40.05-1.15 90.23 0 130 1.15 39.77-8.32 79.69-17.33 114.67-9 34.99-21.11 64.6-37.59 94.41-16.49 29.8-33.61 51.61-55.33 76.67-21.71 25.06-44 43.39-71 61-26.99 17.62-59.76 31.01-89.75 42.25-1.65-52.95-.78-106.71-1-160-.22-53.29.56-108.09 1-161 .44-52.91 2.41-107.24 1-160-1.41-52.76 5.61-105.43-7-155 79.82 64.11 177.01 101.29 277 117M653 288c-8.38 67.77-4.36 137.12-5 207-.64 69.88.76 139.59 0 210s1.1 141.62 1 212c-31.18-7.8-61.05-25.23-87.25-43.75-26.19-18.53-47.81-36.11-70.5-60.5-22.69-24.38-40.7-45.26-57-75-16.31-29.73-29.31-57.91-38.18-92.82-8.86-34.92-16.38-74.56-17.07-113.93-.69-39.37-1.17-88.64-1-129 50.72-5.27 105.59-22.21 151.08-42.92C574.56 338.36 614.7 320.14 653 288Z"/>
  <path fill="none" fill-opacity="0" stroke="#FFF" stroke-width=".3" d="M966 400c-99.99-15.71-197.18-52.89-277-117 12.61 49.57 5.59 102.24 7 155 1.41 52.76-.56 107.09-1 160-.44 52.91-1.22 107.71-1 161 .22 53.29-.65 107.05 1 160 29.99-11.24 62.76-24.63 89.75-42.25 27-17.61 49.29-35.94 71-61 21.72-25.06 38.84-46.87 55.33-76.67 16.48-29.81 28.59-59.42 37.59-94.41 9.01-34.98 18.48-74.9 17.33-114.67-1.15-39.77 1.82-89.95 0-130ZM653 288c-38.3 32.14-78.44 50.36-123.92 71.08C483.59 379.79 428.72 396.73 378 402c-.17 40.36.31 89.63 1 129 .69 39.37 8.21 79.01 17.07 113.93 8.87 34.91 21.87 63.09 38.18 92.82 16.3 29.74 34.31 50.62 57 75 22.69 24.39 44.31 41.97 70.5 60.5 26.2 18.52 56.07 35.95 87.25 43.75.1-70.38-1.76-141.59-1-212s-.64-140.12 0-210-3.38-139.23 5-207Z"/>
  <path fill="#FFF" stroke="None" d="M678 143c-25.52-3.65-46.02 20.98-67.77 30.23-21.75 9.25-38.88 25.51-60.53 36.47-21.66 10.95-43.29 22.31-66.63 31.37-23.33 9.06-47.67 18.46-73 24-25.32 5.55-55.27 11.82-81.05 16.95-25.77 5.14-46.24 11.45-61.25 35.75-15.01 24.3-13.42 55.37-12.77 85.23.65 29.86-.53 67.08 0 97s2.87 63.81 6.01 91.99c3.14 28.18 9.79 54.34 17.21 79.79 7.42 25.44 16.37 48.1 27.01 70.99 10.64 22.89 21.61 42.22 34.02 62.98 12.4 20.77 26.1 38.5 41 57 14.9 18.51 28.7 34.69 44.83 52.17 16.14 17.48 33.08 31.57 51.17 46.83 18.09 15.26 36.85 27.35 57.05 39.95 20.2 12.59 41.44 24.34 63.47 34.53 22.03 10.19 46.26 22.94 71.16 25.84 24.89 2.91 51.21-14.22 73.84-22.3 22.63-8.08 43.08-21.76 63.53-33.47 20.46-11.7 40.2-24.93 58.62-39.38 18.42-14.45 34.49-28.75 50.83-46.17 16.35-17.42 31.51-33.45 45.5-52.5 13.98-19.06 28.53-35.39 40.98-56.02 12.45-20.64 23.22-41.56 34-64 10.78-22.45 19.88-44.54 27.44-69.56 7.57-25.01 14.85-51.37 19.35-78.65 4.51-27.27 7.67-60.54 6.98-90.02-.69-29.48 1.25-66.72 0-96s5.43-65.19-7.25-89.75c-12.67-24.56-32.96-34.31-57.73-40.27-24.77-5.97-54.53-11.23-79.35-17.65-24.81-6.42-52.44-12.64-75.6-22.4-23.15-9.76-45.11-18.83-66.84-30.16-21.73-11.33-40.63-25.43-61.98-36.02C718.89 167.17 701.77 146.4 678 143m337 213c1.47 13.7 1.2 27.88 1 42-.2 14.12 1.09 27.9 1 42-.09 14.1.1 29 0 43s.17 29.31 0 43c-.17 13.69-1.86 27.02-2.98 40.02-1.11 13-3.78 24.68-6 37-2.22 12.33-3.13 26.28-6.02 37.98-2.89 11.71-6.31 22.16-9.93 33.07-3.61 10.91-7.16 21.39-11.39 31.61-4.24 10.22-8.6 19.87-13.6 29.4-5.01 9.52-10.6 17.85-16.38 26.62-5.79 8.77-11.3 17.16-17.47 25.53-6.17 8.37-12.94 16.7-19 25-6.06 8.3-12.33 16.26-19 24-6.67 7.74-13.1 15.38-20.48 22.52-7.38 7.15-13.86 14.64-21.5 21.5-7.64 6.86-15.6 13.06-24 19-8.39 5.95-16.75 11.72-25.33 17.67-8.59 5.95-17.04 12.46-26.15 17.85-9.11 5.39-18.21 10.29-28 15-9.79 4.71-19.57 8.82-29.84 13.16-10.28 4.33-21.33 7.99-32.6 10.4-11.28 2.4-26.01.53-37-2.66-10.99-3.18-22.09-6.29-32.35-10.64-10.27-4.36-20.99-8.47-30.67-13.33-9.69-4.87-18.18-10.27-27.01-16-8.83-5.74-16.51-12.09-25.05-17.95-8.53-5.87-16.29-12.27-24.5-18.5-8.2-6.23-15.71-12.66-23.5-19.5-7.8-6.84-14.52-13.76-22.5-20.5-7.97-6.74-13.94-15.46-21.05-22.95-7.12-7.49-12.74-15.8-19-24-6.26-8.19-11.82-16.71-17.62-25.38-5.8-8.68-10.82-17.55-16.38-26.61-5.57-9.07-10.24-18.45-14.63-28.38-4.38-9.94-9.76-18.67-13.99-29.01-4.24-10.33-8.59-20.94-12.01-31.99-3.41-11.06-6.46-22.24-9.06-33.94-2.6-11.69-6.15-22.67-7.94-35.06-1.78-12.4-3.4-25.52-4.4-38.6-1-13.08-2.48-26.62-2.67-40.33-.19-13.71.27-29.07 0-43s.24-29.47 1-43c.76-13.53-.76-30.09 0-43s-2.8-31.11 10.67-32.33c13.47-1.22 24.85-3.64 37.4-5.6 12.56-1.96 24.17-4.16 35.95-7.05 11.79-2.88 22.82-5.55 34.05-8.95 11.24-3.39 22.12-7.45 32.95-11.05 10.84-3.59 21.24-7.52 31.66-11.34 10.42-3.82 19.68-8.92 29.55-13.45 9.87-4.53 19.12-9.4 28.52-14.48 9.39-5.09 18.06-10.67 27.48-15.52 9.42-4.85 17.95-10.56 27.02-15.98 9.06-5.43 17.87-11.73 26.98-17.02 9.11-5.29 16.2-13.86 26.84-16.16 10.64-2.29 19.24 10.16 27.68 15.18 8.43 5.03 16.97 12.14 25.95 17.05 8.97 4.91 18.19 10.63 27.38 15.62 9.18 5 17.51 11.17 27 16 9.49 4.83 18.93 10.53 28.62 15.38 9.69 4.86 19.78 8.67 29.99 13.01 10.22 4.33 21.24 7.3 31.99 11.01 10.74 3.72 21.87 6.57 33 10 11.12 3.43 22.28 6.54 33.99 9.01 11.71 2.46 23.46 5.4 35.55 7.45 12.09 2.04 25.55 4.28 37.78 6.22Z"/>
  <path fill="#FFF" stroke="None" d="M966 400c-99.99-15.71-197.18-52.89-277-117 12.61 49.57 5.59 102.24 7 155 1.41 52.76-.56 107.09-1 160-.44 52.91-1.22 107.71-1 161 .22 53.29-.65 107.05 1 160 29.99-11.24 62.76-24.63 89.75-42.25 27-17.61 49.29-35.94 71-61 21.72-25.06 38.84-46.87 55.33-76.67 16.48-29.81 28.59-59.42 37.59-94.41 9.01-34.98 18.48-74.9 17.33-114.67-1.15-39.77 1.82-89.95 0-130ZM653 288c-38.3 32.14-78.44 50.36-123.92 71.08C483.59 379.79 428.72 396.73 378 402c-.17 40.36.31 89.63 1 129 .69 39.37 8.21 79.01 17.07 113.93 8.87 34.91 21.87 63.09 38.18 92.82 16.3 29.74 34.31 50.62 57 75 22.69 24.39 44.31 41.97 70.5 60.5 26.2 18.52 56.07 35.95 87.25 43.75.1-70.38-1.76-141.59-1-212s-.64-140.12 0-210-3.38-139.23 5-207Z"/>
  <path fill="#122428" stroke="None" d="M690 20c-27.65-2.68-60.69 4.62-87.33 5.67-26.64 1.05-52.2 10.76-76.65 16.35-24.44 5.59-45.96 15.24-68.33 23.67-22.36 8.44-42.51 19.3-62.99 30-20.49 10.71-38.6 21.71-56.62 35.39-18.02 13.69-34.76 26.56-51.83 41.17-17.08 14.6-31.12 29.07-45.95 46.05-14.82 16.99-29.1 32.33-42 51-12.89 18.67-23.15 37.06-34.38 57.62-11.24 20.56-20.13 41.34-28.99 64.01-8.87 22.66-15.81 45.9-20.94 71.06-5.12 25.17-10.73 53-12.99 80.01-2.26 27.01-2.27 62.15-2 90s4.25 58.73 8.07 84.93c3.82 26.2 12.51 48.68 18.95 73.05 6.45 24.36 14.56 47.13 23 70 8.44 22.86 17.01 44.4 27 66 10 21.59 19.15 41.81 29.06 62.94 9.9 21.14 19.6 41.99 31 62 11.4 20.01 20.61 40.47 31.62 60.38 11 19.92 22.69 39.34 34.38 58.62 11.68 19.29 23.23 37.91 35.15 56.85 11.92 18.95 24.34 37.68 37 56s24.23 36.94 37.02 54.98c12.78 18.05 26.4 35.86 39.5 53.5 13.11 17.64 26.43 34.88 40 52 13.56 17.13 27.2 34.74 42.33 50.67 15.14 15.93 26.83 34.37 42.17 49.83 15.33 15.47 27.12 35.73 44 49 16.88 13.28 27.93 36.63 48.73 43.27 20.79 6.64 38.56-21.93 53.77-35.27 15.21-13.33 29.81-33.77 43.5-49.5 13.69-15.74 29.85-31.98 43.45-48.55 13.59-16.57 28.75-33.94 41.55-51.45 12.79-17.51 28.31-33.53 39.98-52.02 11.67-18.49 24.96-37.19 37.85-55.15s25.01-36.33 37-55c11.99-18.67 26.11-36.26 37.62-55.38 11.5-19.13 25.17-36.55 35.53-56.47s23.39-38.39 35.52-57.48c12.12-19.09 22.17-38.93 33-59 10.82-20.08 21.26-40.52 31.95-61.06 10.68-20.53 20.3-40.54 29.98-62.01 9.68-21.48 17.97-43.62 27.01-65.99 9.05-22.37 16.78-44.18 23.99-68.01 7.2-23.83 16.48-46.97 20.33-72.67 3.84-25.7 10.28-53.25 13.01-79.99 2.74-26.73 4.62-59.88 2.98-87.02-1.64-27.14-4.61-57.67-10.07-82.93-5.47-25.25-13.13-48.04-20.61-71.39-7.48-23.35-16.8-44.77-27.01-65.98-10.22-21.22-22.39-38.3-34.54-57.47-12.14-19.17-25.75-35.87-39.52-53.48-13.76-17.62-27.63-32.55-44.5-47.5-16.87-14.95-31.64-29.83-49.5-43.5-17.87-13.66-34.99-25.55-54.5-37.5-19.52-11.94-39.82-21.43-61.05-31.94-21.24-10.52-42.26-18.51-65.69-26.32-23.43-7.81-49.3-14.08-74.94-18.06-25.64-3.99-57.83-5.39-84.07-7.93m-12 123c23.77 3.4 40.89 24.17 62.25 34.75 21.35 10.59 40.25 24.69 61.98 36.02 21.73 11.33 43.69 20.4 66.84 30.16 23.16 9.76 50.79 15.98 75.6 22.4 24.82 6.42 54.58 11.68 79.35 17.65 24.77 5.96 45.06 15.71 57.73 40.27 12.68 24.56 6 60.47 7.25 89.75s-.69 66.52 0 96c.69 29.48-2.47 62.75-6.98 90.02-4.5 27.28-11.78 53.64-19.35 78.65-7.56 25.02-16.66 47.11-27.44 69.56-10.78 22.44-21.55 43.36-34 64-12.45 20.63-27 36.96-40.98 56.02-13.99 19.05-29.15 35.08-45.5 52.5-16.34 17.42-32.41 31.72-50.83 46.17-18.42 14.45-38.16 27.68-58.62 39.38-20.45 11.71-40.9 25.39-63.53 33.47-22.63 8.08-48.95 25.21-73.84 22.3-24.9-2.9-49.13-15.65-71.16-25.84-22.03-10.19-43.27-21.94-63.47-34.53-20.2-12.6-38.96-24.69-57.05-39.95-18.09-15.26-35.03-29.35-51.17-46.83-16.13-17.48-29.93-33.66-44.83-52.17-14.9-18.5-28.6-36.23-41-57-12.41-20.76-23.38-40.09-34.02-62.98-10.64-22.89-19.59-45.55-27.01-70.99-7.42-25.45-14.07-51.61-17.21-79.79-3.14-28.18-5.48-62.07-6.01-91.99-.53-29.92.65-67.14 0-97s-2.24-60.93 12.77-85.23c15.01-24.3 35.48-30.61 61.25-35.75 25.78-5.13 55.73-11.4 81.05-16.95 25.33-5.54 49.67-14.94 73-24 23.34-9.06 44.97-20.42 66.63-31.37 21.65-10.96 38.78-27.22 60.53-36.47S652.48 139.35 678 143Z"/>
  <path fill="#122428" stroke="None" d="M1015 356c-12.23-1.94-25.69-4.18-37.78-6.22-12.09-2.05-23.84-4.99-35.55-7.45-11.71-2.47-22.87-5.58-33.99-9.01-11.13-3.43-22.26-6.28-33-10-10.75-3.71-21.77-6.68-31.99-11.01-10.21-4.34-20.3-8.15-29.99-13.01-9.69-4.85-19.13-10.55-28.62-15.38-9.49-4.83-17.82-11-27-16-9.19-4.99-18.41-10.71-27.38-15.62-8.98-4.91-17.52-12.02-25.95-17.05-8.44-5.02-17.04-17.47-27.68-15.18-10.64 2.3-17.73 10.87-26.84 16.16-9.11 5.29-17.92 11.59-26.98 17.02-9.07 5.42-17.6 11.13-27.02 15.98-9.42 4.85-18.09 10.43-27.48 15.52-9.4 5.08-18.65 9.95-28.52 14.48-9.87 4.53-19.13 9.63-29.55 13.45-10.42 3.82-20.82 7.75-31.66 11.34-10.83 3.6-21.71 7.66-32.95 11.05-11.23 3.4-22.26 6.07-34.05 8.95-11.78 2.89-23.39 5.09-35.95 7.05-12.55 1.96-23.93 4.38-37.4 5.6-13.47 1.22-9.91 19.42-10.67 32.33-.76 12.91.76 29.47 0 43-.76 13.53-1.27 29.07-1 43s-.19 29.29 0 43 1.67 27.25 2.67 40.33c1 13.08 2.62 26.2 4.4 38.6 1.79 12.39 5.34 23.37 7.94 35.06 2.6 11.7 5.65 22.88 9.06 33.94 3.42 11.05 7.77 21.66 12.01 31.99 4.23 10.34 9.61 19.07 13.99 29.01 4.39 9.93 9.06 19.31 14.63 28.38 5.56 9.06 10.58 17.93 16.38 26.61 5.8 8.67 11.36 17.19 17.62 25.38 6.26 8.2 11.88 16.51 19 24 7.11 7.49 13.08 16.21 21.05 22.95 7.98 6.74 14.7 13.66 22.5 20.5 7.79 6.84 15.3 13.27 23.5 19.5 8.21 6.23 15.97 12.63 24.5 18.5 8.54 5.86 16.22 12.21 25.05 17.95 8.83 5.73 17.32 11.13 27.01 16 9.68 4.86 20.4 8.97 30.67 13.33 10.26 4.35 21.36 7.46 32.35 10.64 10.99 3.19 25.72 5.06 37 2.66 11.27-2.41 22.32-6.07 32.6-10.4 10.27-4.34 20.05-8.45 29.84-13.16 9.79-4.71 18.89-9.61 28-15 9.11-5.39 17.56-11.9 26.15-17.85 8.58-5.95 16.94-11.72 25.33-17.67 8.4-5.94 16.36-12.14 24-19 7.64-6.86 14.12-14.35 21.5-21.5 7.38-7.14 13.81-14.78 20.48-22.52s12.94-15.7 19-24c6.06-8.3 12.83-16.63 19-25 6.17-8.37 11.68-16.76 17.47-25.53 5.78-8.77 11.37-17.1 16.38-26.62 5-9.53 9.36-19.18 13.6-29.4 4.23-10.22 7.78-20.7 11.39-31.61 3.62-10.91 7.04-21.36 9.93-33.07 2.89-11.7 3.8-25.65 6.02-37.98 2.22-12.32 4.89-24 6-37 1.12-13 2.81-26.33 2.98-40.02.17-13.69-.1-29 0-43s-.09-28.9 0-43c.09-14.1-1.2-27.88-1-42 .2-14.12.47-28.3-1-42m-49 44c1.82 40.05-1.15 90.23 0 130 1.15 39.77-8.32 79.69-17.33 114.67-9 34.99-21.11 64.6-37.59 94.41-16.49 29.8-33.61 51.61-55.33 76.67-21.71 25.06-44 43.39-71 61-26.99 17.62-59.76 31.01-89.75 42.25-1.65-52.95-.78-106.71-1-160-.22-53.29.56-108.09 1-161 .44-52.91 2.41-107.24 1-160-1.41-52.76 5.61-105.43-7-155 79.82 64.11 177.01 101.29 277 117M653 288c-8.38 67.77-4.36 137.12-5 207-.64 69.88.76 139.59 0 210s1.1 141.62 1 212c-31.18-7.8-61.05-25.23-87.25-43.75-26.19-18.53-47.81-36.11-70.5-60.5-22.69-24.38-40.7-45.26-57-75-16.31-29.73-29.31-57.91-38.18-92.82-8.86-34.92-16.38-74.56-17.07-113.93-.69-39.37-1.17-88.64-1-129 50.72-5.27 105.59-22.21 151.08-42.92C574.56 338.36 614.7 320.14 653 288Z"/>
</svg>
